<svg width="124" height="112" viewBox="0 0 124 112" fill="none" xmlns="http://www.w3.org/2000/svg">
<path d="M8.697 64.428C7.48367 64.428 6.57367 64.246 5.967 63.882C5.421 63.5787 5.057 63.1237 4.875 62.517C4.693 61.8497 4.602 61.0913 4.602 60.242V5.005C4.602 4.15567 4.693 3.42767 4.875 2.821C5.11767 2.21433 5.512 1.75933 6.058 1.456C6.66467 1.092 7.57467 0.91 8.788 0.91C10.0013 0.91 10.881 1.092 11.427 1.456C12.0337 1.75933 12.3977 2.21433 12.519 2.821C12.701 3.42767 12.792 4.186 12.792 5.096V60.333C12.792 61.1823 12.701 61.9103 12.519 62.517C12.337 63.1237 11.9427 63.5787 11.336 63.882C10.79 64.246 9.91033 64.428 8.697 64.428Z" fill="#4F66F4"/>
<path d="M27.6065 64.428C26.5145 64.428 25.6652 64.2157 25.0585 63.791C24.5125 63.427 24.1485 62.881 23.9665 62.153C23.7845 61.3643 23.6935 60.515 23.6935 59.605V5.551C23.6935 4.641 23.7845 3.85233 23.9665 3.185C24.2092 2.457 24.6035 1.911 25.1495 1.547C25.7562 1.12233 26.6055 0.91 27.6975 0.91H53.0865C56.4839 0.91 59.4565 1.66833 62.0045 3.185C64.6132 4.70167 66.6455 6.76433 68.1015 9.373C69.5575 11.9817 70.2552 14.833 70.1945 17.927C70.2552 19.5043 70.0732 21.0513 69.6485 22.568C69.2239 24.0847 68.5869 25.5103 67.7375 26.845C66.9489 28.119 65.9479 29.1807 64.7345 30.03C66.3725 31.0613 67.7679 32.396 68.9205 34.034C70.0732 35.672 70.9529 37.492 71.5595 39.494C72.1662 41.496 72.4695 43.589 72.4695 45.773C72.4089 48.3817 71.9235 50.8387 71.0135 53.144C70.1035 55.3887 68.7992 57.3603 67.1005 59.059C65.4019 60.7577 63.4302 62.0923 61.1855 63.063C58.9408 63.973 56.5445 64.428 53.9965 64.428H27.6065ZM31.8835 56.602H53.0865C55.4525 56.602 57.4849 56.147 59.1835 55.237C60.8822 54.327 62.1865 52.9923 63.0965 51.233C64.0065 49.4737 64.4615 47.32 64.4615 44.772C64.4615 42.588 64.1582 40.8287 63.5515 39.494C62.9449 38.1593 62.1259 37.1583 61.0945 36.491C60.0632 35.763 58.9409 35.2473 57.7275 34.944C56.5748 34.6407 55.4222 34.489 54.2695 34.489C53.1775 34.4283 52.1765 34.398 51.2665 34.398H45.7155C44.5022 34.398 43.6225 34.0947 43.0765 33.488C42.5305 32.8813 42.2575 31.9107 42.2575 30.576C42.2575 29.302 42.5305 28.392 43.0765 27.846C43.6832 27.3 44.5932 27.027 45.8065 27.027H51.3575C52.3282 27.027 53.4202 26.9967 54.6335 26.936C55.8469 26.8753 57.0298 26.6327 58.1825 26.208C59.3959 25.7833 60.3665 24.9947 61.0945 23.842C61.8832 22.6287 62.2775 20.93 62.2775 18.746C62.2775 15.3487 61.3675 12.8613 59.5475 11.284C57.7275 9.646 54.7245 8.827 50.5385 8.827H31.8835V56.602Z" fill="#4F66F4"/>
<path d="M101.289 65.338C98.9835 65.338 96.7995 65.065 94.7368 64.519C92.7348 63.973 90.8845 63.245 89.1858 62.335C87.5478 61.3643 86.0918 60.3027 84.8178 59.15C83.5438 57.9973 82.5428 56.8447 81.8148 55.692C81.1475 54.7213 80.7228 53.9327 80.5408 53.326C80.3588 52.6587 80.3891 52.0217 80.6318 51.415C80.9351 50.8083 81.5115 50.141 82.3608 49.413C83.3315 48.685 84.1808 48.3513 84.9088 48.412C85.6368 48.412 86.3041 48.685 86.9108 49.231C87.5781 49.777 88.2455 50.505 88.9128 51.415C90.4295 53.4777 92.2798 54.9943 94.4638 55.965C96.6478 56.875 98.8015 57.33 100.925 57.33C103.655 57.33 106.081 56.966 108.205 56.238C110.328 55.51 111.996 54.418 113.21 52.962C114.484 51.4453 115.121 49.504 115.121 47.138C115.121 45.1967 114.635 43.5587 113.665 42.224C112.694 40.8893 111.39 39.767 109.752 38.857C108.114 37.8863 106.294 37.0673 104.292 36.4C102.29 35.672 100.257 34.9743 98.1948 34.307C96.5568 33.761 94.9491 33.1543 93.3718 32.487C91.7945 31.759 90.3081 30.9703 88.9128 30.121C87.5175 29.211 86.2738 28.1493 85.1818 26.936C84.1505 25.7227 83.3315 24.297 82.7248 22.659C82.1788 21.021 81.9058 19.11 81.9058 16.926C81.9058 13.5893 82.6945 10.647 84.2718 8.099C85.9098 5.551 88.1848 3.57933 91.0968 2.184C94.0088 0.728001 97.3758 0 101.198 0C103.442 0 105.505 0.212332 107.386 0.636997C109.266 1.06167 110.935 1.638 112.391 2.366C113.847 3.03333 115.09 3.76133 116.122 4.55C117.153 5.278 117.942 5.97567 118.488 6.643C119.58 7.79567 120.186 8.76633 120.308 9.555C120.429 10.3437 119.974 11.3143 118.943 12.467C117.972 13.559 117.032 14.1353 116.122 14.196C115.212 14.2567 114.211 13.832 113.119 12.922C111.966 11.5873 110.753 10.556 109.479 9.828C108.265 9.1 106.961 8.61467 105.566 8.372C104.231 8.06867 102.745 7.917 101.107 7.917C99.5295 7.917 98.0431 8.12933 96.6478 8.554C95.3131 8.918 94.1301 9.49433 93.0988 10.283C92.1281 11.0717 91.3698 12.0423 90.8238 13.195C90.2778 14.287 90.0048 15.561 90.0048 17.017C90.0048 18.655 90.4295 20.0503 91.2788 21.203C92.1888 22.3557 93.3718 23.3567 94.8278 24.206C96.2838 24.9947 97.9218 25.7227 99.7418 26.39C101.562 26.9967 103.473 27.6033 105.475 28.21C107.659 28.8773 109.812 29.6963 111.936 30.667C114.059 31.577 115.97 32.7297 117.669 34.125C119.367 35.4597 120.732 37.1583 121.764 39.221C122.795 41.2837 123.311 43.8317 123.311 46.865C123.311 49.8983 122.704 52.5677 121.491 54.873C120.338 57.1783 118.73 59.1197 116.668 60.697C114.605 62.2137 112.239 63.3663 109.57 64.155C106.961 64.9437 104.201 65.338 101.289 65.338Z" fill="#4F66F4"/>
<path d="M10.218 110.908C8.996 110.908 7.956 110.791 7.098 110.557C6.266 110.323 5.577 109.959 5.031 109.465C4.485 108.971 4.095 108.334 3.861 107.554C3.627 106.748 3.51 105.76 3.51 104.59V87.352C3.51 86.988 3.549 86.676 3.627 86.416C3.705 86.156 3.861 85.961 4.095 85.831C4.329 85.675 4.693 85.597 5.187 85.597C5.681 85.597 6.058 85.675 6.318 85.831C6.578 85.961 6.747 86.156 6.825 86.416C6.903 86.65 6.942 86.949 6.942 87.313V104.59C6.942 105.266 6.994 105.812 7.098 106.228C7.228 106.618 7.41 106.917 7.644 107.125C7.904 107.333 8.242 107.463 8.658 107.515C9.074 107.567 9.581 107.593 10.179 107.593C10.595 107.593 10.933 107.632 11.193 107.71C11.453 107.788 11.648 107.944 11.778 108.178C11.908 108.412 11.973 108.763 11.973 109.231C11.973 109.725 11.895 110.102 11.739 110.362C11.609 110.596 11.401 110.739 11.115 110.791C10.855 110.869 10.556 110.908 10.218 110.908ZM1.482 92.461L5.226 92.5L10.647 92.422C11.011 92.422 11.323 92.461 11.583 92.539C11.843 92.591 12.038 92.747 12.168 93.007C12.324 93.241 12.402 93.605 12.402 94.099C12.402 94.593 12.337 94.97 12.207 95.23C12.077 95.464 11.882 95.62 11.622 95.698C11.362 95.776 11.05 95.815 10.686 95.815L5.343 95.737L1.404 95.776C0.858 95.776 0.481 95.646 0.273 95.386C0.091 95.126 0 94.697 0 94.099C0 93.527 0.117 93.111 0.351 92.851C0.585 92.591 0.962 92.461 1.482 92.461Z" fill="#4F66F4"/>
<path d="M17.7051 110.908C17.2111 110.908 16.8341 110.83 16.5741 110.674C16.3401 110.544 16.1841 110.349 16.1061 110.089C16.0541 109.803 16.0281 109.478 16.0281 109.114V93.748C16.0281 93.358 16.0671 93.033 16.1451 92.773C16.2231 92.513 16.3791 92.331 16.6131 92.227C16.8471 92.097 17.2241 92.032 17.7441 92.032C18.2121 92.032 18.5631 92.097 18.7971 92.227C19.0571 92.331 19.2261 92.5 19.3041 92.734C19.4081 92.942 19.4601 93.189 19.4601 93.475L19.3041 94.645C19.4861 94.307 19.6941 93.969 19.9281 93.631C20.1881 93.293 20.5001 92.994 20.8641 92.734C21.2541 92.448 21.7091 92.214 22.2291 92.032C22.7751 91.85 23.4381 91.759 24.2181 91.759C24.6081 91.759 24.9721 91.798 25.3101 91.876C25.6741 91.928 26.0121 92.019 26.3241 92.149C26.6621 92.279 26.9481 92.435 27.1821 92.617C27.4161 92.773 27.5981 92.955 27.7281 93.163C27.8841 93.345 27.9621 93.566 27.9621 93.826C27.9621 94.398 27.7801 94.892 27.4161 95.308C27.0521 95.698 26.6751 95.893 26.2851 95.893C25.9471 95.893 25.7001 95.854 25.5441 95.776C25.3881 95.672 25.2321 95.568 25.0761 95.464C24.9461 95.36 24.7511 95.269 24.4911 95.191C24.2311 95.087 23.8151 95.035 23.2431 95.035C22.8531 95.035 22.4371 95.113 21.9951 95.269C21.5791 95.425 21.1761 95.659 20.7861 95.971C20.3961 96.257 20.0711 96.634 19.8111 97.102C19.5771 97.57 19.4601 98.116 19.4601 98.74V109.192C19.4601 109.556 19.4211 109.868 19.3431 110.128C19.2651 110.388 19.0961 110.583 18.8361 110.713C18.6021 110.843 18.2251 110.908 17.7051 110.908Z" fill="#4F66F4"/>
<path d="M46.1489 110.869C45.5769 110.869 45.1609 110.752 44.9009 110.518C44.6669 110.284 44.5239 109.92 44.4719 109.426L44.6279 107.476C44.3679 107.892 43.9649 108.373 43.4189 108.919C42.8729 109.439 42.1579 109.907 41.2739 110.323C40.3899 110.713 39.3109 110.908 38.0369 110.908C36.7889 110.908 35.6189 110.661 34.5269 110.167C33.4609 109.673 32.5119 108.984 31.6799 108.1C30.8739 107.216 30.2369 106.202 29.7689 105.058C29.3269 103.914 29.1059 102.692 29.1059 101.392C29.1059 100.118 29.3269 98.922 29.7689 97.804C30.2369 96.66 30.8869 95.659 31.7189 94.801C32.5509 93.943 33.4999 93.267 34.5659 92.773C35.6579 92.279 36.8149 92.032 38.0369 92.032C39.1809 92.032 40.1559 92.188 40.9619 92.5C41.7679 92.786 42.4569 93.176 43.0289 93.67C43.6269 94.138 44.1469 94.671 44.5889 95.269L44.5109 93.631C44.4849 93.059 44.6019 92.656 44.8619 92.422C45.1479 92.162 45.5899 92.032 46.1879 92.032C46.6819 92.032 47.0329 92.11 47.2409 92.266C47.4749 92.422 47.6309 92.643 47.7089 92.929C47.7869 93.215 47.8259 93.566 47.8259 93.982V109.036C47.8259 109.4 47.7869 109.725 47.7089 110.011C47.6309 110.297 47.4749 110.505 47.2409 110.635C47.0069 110.791 46.6429 110.869 46.1489 110.869ZM38.6219 107.632C39.6619 107.632 40.6109 107.359 41.4689 106.813C42.3529 106.267 43.0419 105.539 43.5359 104.629C44.0559 103.693 44.3159 102.627 44.3159 101.431C44.3159 100.209 44.0429 99.143 43.4969 98.233C42.9769 97.297 42.2749 96.569 41.3909 96.049C40.5329 95.503 39.5839 95.23 38.5439 95.23C37.3219 95.23 36.2559 95.516 35.3459 96.088C34.4619 96.634 33.7599 97.375 33.2399 98.311C32.7199 99.247 32.4599 100.313 32.4599 101.509C32.4599 102.679 32.7199 103.732 33.2399 104.668C33.7599 105.578 34.4749 106.306 35.3849 106.852C36.3209 107.372 37.3999 107.632 38.6219 107.632Z" fill="#4F66F4"/>
<path d="M61.3674 110.986C60.0154 110.986 58.7414 110.765 57.5454 110.323C56.3754 109.881 55.3354 109.244 54.4254 108.412C53.5414 107.58 52.8394 106.592 52.3194 105.448C51.8254 104.278 51.5784 102.952 51.5784 101.47C51.5784 99.988 51.8254 98.675 52.3194 97.531C52.8394 96.361 53.5414 95.36 54.4254 94.528C55.3094 93.696 56.3364 93.059 57.5064 92.617C58.7024 92.175 59.9634 91.954 61.2894 91.954C62.1734 91.954 63.0444 92.097 63.9024 92.383C64.7604 92.643 65.5144 92.994 66.1644 93.436C66.8404 93.852 67.3214 94.294 67.6074 94.762C67.8674 95.1 68.0494 95.386 68.1534 95.62C68.2834 95.828 68.2964 96.075 68.1924 96.361C68.0884 96.569 67.9454 96.764 67.7634 96.946C67.5814 97.102 67.3994 97.232 67.2174 97.336C66.7494 97.7 66.2814 97.752 65.8134 97.492C65.5274 97.206 65.2024 96.946 64.8384 96.712C64.5004 96.452 64.1364 96.218 63.7464 96.01C63.3564 95.802 62.9534 95.646 62.5374 95.542C62.1474 95.412 61.7314 95.347 61.2894 95.347C60.0674 95.347 58.9884 95.607 58.0524 96.127C57.1164 96.621 56.3884 97.336 55.8684 98.272C55.3744 99.182 55.1274 100.248 55.1274 101.47C55.1274 102.692 55.3744 103.758 55.8684 104.668C56.3884 105.578 57.1034 106.293 58.0134 106.813C58.9494 107.333 60.0154 107.593 61.2114 107.593C61.7574 107.593 62.2774 107.528 62.7714 107.398C63.2914 107.242 63.7724 107.047 64.2144 106.813C64.6564 106.553 65.0204 106.28 65.3064 105.994C65.5664 105.812 65.7874 105.656 65.9694 105.526C66.1514 105.396 66.3724 105.331 66.6324 105.331C66.8404 105.331 67.0614 105.422 67.2954 105.604C67.5294 105.76 67.7764 106.007 68.0364 106.345C68.2444 106.579 68.3614 106.826 68.3874 107.086C68.4394 107.346 68.4004 107.593 68.2704 107.827C68.1404 108.061 67.9324 108.295 67.6464 108.529C67.2304 108.945 66.6714 109.348 65.9694 109.738C65.2934 110.102 64.5524 110.401 63.7464 110.635C62.9404 110.869 62.1474 110.986 61.3674 110.986Z" fill="#4F66F4"/>
<path d="M86.7881 107.866C87.2821 108.256 87.5421 108.633 87.5681 108.997C87.6201 109.361 87.4381 109.79 87.0221 110.284C86.7101 110.648 86.4241 110.882 86.1641 110.986C85.9301 111.116 85.6831 111.129 85.4231 111.025C85.1631 110.947 84.8641 110.765 84.5261 110.479L75.7121 103.303V109.153C75.7121 109.517 75.6601 109.829 75.5561 110.089C75.4781 110.349 75.3221 110.544 75.0881 110.674C74.8541 110.83 74.4771 110.908 73.9571 110.908C73.4891 110.908 73.1251 110.83 72.8651 110.674C72.6051 110.544 72.4361 110.349 72.3581 110.089C72.3061 109.803 72.2801 109.478 72.2801 109.114V85.051C72.2801 84.687 72.3191 84.375 72.3971 84.115C72.4751 83.855 72.6441 83.66 72.9041 83.53C73.1641 83.374 73.5281 83.296 73.9961 83.296C74.5161 83.296 74.8931 83.374 75.1271 83.53C75.3611 83.66 75.5171 83.868 75.5951 84.154C75.6731 84.414 75.7121 84.726 75.7121 85.09V98.896L82.1471 92.734C82.4331 92.448 82.7061 92.253 82.9661 92.149C83.2521 92.019 83.5251 91.993 83.7851 92.071C84.0711 92.149 84.3571 92.357 84.6431 92.695C85.1111 93.215 85.3321 93.657 85.3061 94.021C85.3061 94.359 85.0721 94.749 84.6041 95.191L78.2861 101.158L86.7881 107.866Z" fill="#4F66F4"/>
<path d="M99.0725 111.103C97.5125 111.103 96.1215 110.843 94.8995 110.323C93.6775 109.803 92.6375 109.101 91.7795 108.217C90.9475 107.307 90.3105 106.267 89.8685 105.097C89.4265 103.927 89.2055 102.666 89.2055 101.314C89.2055 99.52 89.6215 97.921 90.4535 96.517C91.2855 95.113 92.4295 94.008 93.8855 93.202C95.3675 92.37 97.0575 91.954 98.9555 91.954C100.255 91.954 101.412 92.162 102.426 92.578C103.466 92.968 104.35 93.501 105.078 94.177C105.806 94.853 106.365 95.607 106.755 96.439C107.145 97.271 107.34 98.103 107.34 98.935C107.34 100.261 107.028 101.197 106.404 101.743C105.78 102.263 105.013 102.523 104.103 102.523H92.8325C92.8065 103.667 93.1055 104.655 93.7295 105.487C94.3795 106.293 95.1855 106.917 96.1475 107.359C97.1355 107.801 98.1235 108.022 99.1115 108.022C99.8395 108.022 100.463 107.983 100.983 107.905C101.503 107.827 101.958 107.723 102.348 107.593C102.738 107.463 103.076 107.333 103.362 107.203C103.648 107.073 103.895 106.943 104.103 106.813C104.337 106.683 104.558 106.592 104.766 106.54C105 106.488 105.221 106.514 105.429 106.618C105.663 106.696 105.845 106.865 105.975 107.125C106.131 107.333 106.235 107.528 106.287 107.71C106.339 107.892 106.365 108.087 106.365 108.295C106.365 108.659 106.053 109.062 105.429 109.504C104.805 109.946 103.934 110.323 102.816 110.635C101.724 110.947 100.476 111.103 99.0725 111.103ZM92.8325 100.222H102.621C103.115 100.222 103.479 100.157 103.713 100.027C103.973 99.897 104.103 99.546 104.103 98.974C104.103 98.246 103.882 97.596 103.44 97.024C102.998 96.426 102.387 95.945 101.607 95.581C100.853 95.217 99.9825 95.035 98.9945 95.035C97.8505 95.035 96.7975 95.269 95.8355 95.737C94.8995 96.179 94.1585 96.79 93.6125 97.57C93.0665 98.35 92.8065 99.234 92.8325 100.222Z" fill="#4F66F4"/>
<path d="M112.958 110.908C112.464 110.908 112.087 110.83 111.827 110.674C111.593 110.544 111.437 110.349 111.359 110.089C111.307 109.803 111.281 109.478 111.281 109.114V93.748C111.281 93.358 111.32 93.033 111.398 92.773C111.476 92.513 111.632 92.331 111.866 92.227C112.1 92.097 112.477 92.032 112.997 92.032C113.465 92.032 113.816 92.097 114.05 92.227C114.31 92.331 114.479 92.5 114.557 92.734C114.661 92.942 114.713 93.189 114.713 93.475L114.557 94.645C114.739 94.307 114.947 93.969 115.181 93.631C115.441 93.293 115.753 92.994 116.117 92.734C116.507 92.448 116.962 92.214 117.482 92.032C118.028 91.85 118.691 91.759 119.471 91.759C119.861 91.759 120.225 91.798 120.563 91.876C120.927 91.928 121.265 92.019 121.577 92.149C121.915 92.279 122.201 92.435 122.435 92.617C122.669 92.773 122.851 92.955 122.981 93.163C123.137 93.345 123.215 93.566 123.215 93.826C123.215 94.398 123.033 94.892 122.669 95.308C122.305 95.698 121.928 95.893 121.538 95.893C121.2 95.893 120.953 95.854 120.797 95.776C120.641 95.672 120.485 95.568 120.329 95.464C120.199 95.36 120.004 95.269 119.744 95.191C119.484 95.087 119.068 95.035 118.496 95.035C118.106 95.035 117.69 95.113 117.248 95.269C116.832 95.425 116.429 95.659 116.039 95.971C115.649 96.257 115.324 96.634 115.064 97.102C114.83 97.57 114.713 98.116 114.713 98.74V109.192C114.713 109.556 114.674 109.868 114.596 110.128C114.518 110.388 114.349 110.583 114.089 110.713C113.855 110.843 113.478 110.908 112.958 110.908Z" fill="#4F66F4"/>
</svg>
